<svg width="30" height="30" viewBox="0 0 30 30" fill="none" xmlns="http://www.w3.org/2000/svg">
<path d="M29.9951 15.9377C29.9168 16.4856 29.862 17.039 29.765 17.5814C29.1458 21.0395 27.5076 23.9324 24.8808 26.257C22.7401 28.1536 20.2471 29.3519 17.4223 29.7957C13.4375 30.4219 9.7454 29.6141 6.43685 27.2957C2.98742 24.881 0.832596 21.5701 0.200943 17.4037C-0.620911 11.9607 1.08541 7.35128 5.18842 3.67408C7.40586 1.68754 10.0413 0.551816 12.9851 0.130714C13.3404 0.0798372 13.6981 0.0430495 14.055 0H15.9336C16.4423 0.066531 16.955 0.11819 17.4599 0.202724C20.2675 0.683313 22.7526 1.85348 24.8839 3.74217C27.51 6.06684 29.1482 8.9582 29.765 12.4155C29.862 12.9634 29.9215 13.5113 29.9951 14.0592V15.9377ZM14.9888 1.40576C7.50448 1.40576 1.40085 7.51096 1.39694 14.9883C1.39224 22.4836 7.50213 28.5958 14.9967 28.5935C22.4912 28.5911 28.5838 22.4922 28.5885 15.0102C28.594 7.51409 22.4857 1.4042 14.9888 1.40576Z" fill="black"/>
<path d="M15.528 7.00401C15.9094 7.07588 16.2984 7.12045 16.6706 7.22403C17.7546 7.52555 18.6379 8.14143 19.3369 9.01588C19.8425 9.64056 20.194 10.3754 20.3631 11.161C20.6646 12.5663 20.4534 13.8912 19.6926 15.1137C19.1518 15.9841 18.5893 16.8401 18.0373 17.7045C18.0116 17.7447 17.9899 17.7848 17.957 17.8454C18.126 17.8768 18.2818 17.9033 18.4388 17.9346C19.351 18.1197 20.2483 18.3521 21.075 18.7962C21.5306 19.0415 21.951 19.3338 22.2144 19.7975C22.5324 20.3572 22.4862 20.902 22.1156 21.4195C21.8217 21.8302 21.4082 22.0972 20.9678 22.3213C20.0491 22.7874 19.0607 23.0279 18.0509 23.1909C16.4613 23.4452 14.8447 23.4857 13.2443 23.3113C12.0306 23.1825 10.8382 22.95 9.71439 22.4485C9.21855 22.2277 8.75082 21.9575 8.39711 21.5335C7.82659 20.851 7.87517 20.0119 8.51474 19.3912C8.94835 18.9692 9.47189 18.697 10.0268 18.4806C10.7699 18.1903 11.5416 18.0032 12.3269 17.8695C12.367 17.8627 12.4072 17.8507 12.4634 17.837C12.4232 17.7744 12.3939 17.7258 12.363 17.6764C11.8134 16.8176 11.2529 15.9657 10.7169 15.0989C10.0243 13.9787 9.7702 12.7562 10.0015 11.4585C10.3375 9.57154 11.4067 8.23137 13.1447 7.4304C13.6568 7.19934 14.2062 7.06212 14.7667 7.02529C14.8084 7.01965 14.8495 7.0112 14.89 7L15.528 7.00401ZM15.2068 20.3471C15.2469 20.2873 15.2806 20.2407 15.3112 20.193C16.4658 18.3841 17.6208 16.5757 18.776 14.7676C19.6882 13.3459 19.8042 11.8628 19.0518 10.3577C18.3553 8.96409 17.1913 8.15348 15.6392 8.00051C14.0047 7.83992 12.6858 8.46664 11.7046 9.77951C10.676 11.1534 10.6101 13.1572 11.5347 14.6062C12.7261 16.4737 13.9188 18.3404 15.1128 20.2062C15.1385 20.248 15.1694 20.2897 15.208 20.3455L15.2068 20.3471ZM15.2004 22.422C15.5617 22.422 15.9266 22.4385 16.2888 22.4192C17.4531 22.357 18.6026 22.1852 19.7123 21.809C20.2342 21.6319 20.7413 21.4199 21.1605 21.0461C21.5435 20.7057 21.5499 20.3945 21.1813 20.0424C20.879 19.7537 20.5129 19.5686 20.1319 19.4101C19.2779 19.0547 18.3802 18.8749 17.468 18.7576C17.4202 18.7516 17.3439 18.803 17.3134 18.8492C17.0898 19.1872 16.8742 19.5317 16.6562 19.8726C16.3209 20.3993 15.9841 20.9249 15.6524 21.4528C15.5268 21.6536 15.3601 21.7596 15.1184 21.721C14.9446 21.6933 14.8418 21.5753 14.7531 21.4356C14.2092 20.5791 13.6651 19.7236 13.1206 18.8692C13.064 18.7797 13.015 18.7315 12.8938 18.7584C12.6702 18.8078 12.4401 18.8259 12.2149 18.8676C11.3677 19.0242 10.533 19.229 9.77783 19.6598C9.53434 19.8027 9.31159 19.9783 9.11577 20.1817C8.89335 20.4078 8.907 20.6599 9.11577 20.8984C9.22055 21.0191 9.33928 21.1269 9.46948 21.2196C9.97375 21.5737 10.5463 21.7792 11.1325 21.9459C12.4622 22.3201 13.8248 22.4445 15.2016 22.4212L15.2004 22.422Z" fill="#FD6F71"/>
<path d="M15.2094 14.7279C14.5719 14.7263 13.9609 14.4723 13.5101 14.0215C13.0593 13.5707 12.8053 12.9597 12.8037 12.3222C12.8063 11.6847 13.0611 11.0741 13.5125 10.624C13.9639 10.1739 14.5752 9.92078 15.2127 9.92004C15.8474 9.92373 16.4551 10.1775 16.904 10.6264C17.3529 11.0752 17.6067 11.683 17.6103 12.3177C17.6097 12.9552 17.3569 13.5664 16.907 14.018C16.4571 14.4696 15.8469 14.7248 15.2094 14.7279ZM15.2006 10.8824C14.4129 10.8896 13.7633 11.5433 13.7661 12.3278C13.7703 12.7083 13.9234 13.0721 14.1926 13.3411C14.4618 13.6101 14.8257 13.7629 15.2062 13.7667C15.996 13.7667 16.6592 13.1002 16.6488 12.3145C16.6383 11.5288 15.9819 10.8756 15.2006 10.8824Z" fill="#FD6F71"/>
</svg>
