<svg width="31" height="30" viewBox="0 0 31 30" fill="none" xmlns="http://www.w3.org/2000/svg">
<path d="M30.0078 15.9377C29.9295 16.4856 29.8747 17.039 29.7777 17.5814C29.1585 21.0395 27.5203 23.9324 24.8935 26.257C22.7528 28.1536 20.2598 29.3519 17.435 29.7957C13.4502 30.4219 9.7581 29.6141 6.44955 27.2957C3.00011 24.881 0.845291 21.5701 0.213638 17.4037C-0.608215 11.9607 1.09811 7.35128 5.20111 3.67408C7.41855 1.68754 10.054 0.551816 12.9978 0.130714C13.3531 0.0798372 13.7108 0.0430495 14.0677 0H15.9463C16.455 0.066531 16.9677 0.11819 17.4726 0.202724C20.2802 0.683313 22.7653 1.85348 24.8966 3.74217C27.5227 6.06684 29.1609 8.9582 29.7777 12.4155C29.8747 12.9634 29.9342 13.5113 30.0078 14.0592V15.9377ZM15.0015 1.40576C7.51718 1.40576 1.41354 7.51096 1.40963 14.9883C1.40493 22.4836 7.51483 28.5958 15.0093 28.5935C22.5039 28.5911 28.5965 22.4922 28.6012 15.0102C28.6067 7.51409 22.4984 1.4042 15.0015 1.40576Z" fill="black"/>
<path d="M15.0069 8.82205C17.2919 8.82205 19.5769 8.82205 21.8619 8.82205C23.0846 8.82205 23.7655 9.49988 23.7663 10.7248C23.7663 13.5765 23.7663 16.4275 23.7663 19.2776C23.7663 20.4939 23.0791 21.1835 21.8588 21.1843C17.2883 21.1843 12.7182 21.1843 8.14874 21.1843C6.92848 21.1843 6.24517 20.4947 6.24438 19.2745C6.24438 16.4238 6.24438 13.5729 6.24438 10.7217C6.24438 9.50066 6.92848 8.82283 8.15187 8.82205C10.4369 8.82152 12.7219 8.82152 15.0069 8.82205ZM7.67363 10.9557C7.66267 11.0739 7.65171 11.1311 7.65171 11.1906C7.65171 13.904 7.65171 16.6174 7.65171 19.3308C7.65171 19.7112 7.73468 19.7809 8.16361 19.7809H21.8408C22.2964 19.7809 22.359 19.7151 22.3598 19.2486C22.3598 16.5937 22.3598 13.9387 22.3598 11.2837C22.3598 11.1929 22.3488 11.1029 22.3402 10.9706C22.222 11.0591 22.1453 11.1138 22.0709 11.1733L15.5806 16.3205C15.1345 16.6751 14.8762 16.6735 14.434 16.3205L10.01 12.8069C9.24767 12.2034 8.48452 11.5991 7.67363 10.9557ZM9.088 10.2466C9.10852 10.2774 9.13156 10.3065 9.15688 10.3335C11.0516 11.8405 12.946 13.3482 14.8402 14.8568C15.003 14.9867 15.0907 14.9171 15.2128 14.82C16.9869 13.4111 18.7611 12.0022 20.5352 10.5933C20.6605 10.4931 20.7834 10.3906 20.9595 10.2458L9.088 10.2466Z" fill="#FD6F71"/>
</svg>
