<svg width="30" height="30" viewBox="0 0 30 30" fill="none" xmlns="http://www.w3.org/2000/svg">
<path d="M15.2163 29.598C12.4859 29.5171 9.95062 28.8501 7.59961 27.4635C7.50339 27.3951 7.39029 27.3543 7.27256 27.3455C7.15483 27.3368 7.03695 27.3603 6.93166 27.4137C5.01555 28.2445 3.08969 29.051 1.16968 29.8749C0.832289 30.0193 0.516355 30.0856 0.222844 29.8106C-0.0706662 29.5356 -0.0326375 29.1933 0.0999784 28.8355C0.836192 26.8677 1.56266 24.894 2.29497 22.9272C2.35187 22.8046 2.37595 22.6694 2.36484 22.5347C2.35373 22.4 2.30781 22.2704 2.23158 22.1588C-1.01653 16.821 -0.608935 10.121 3.31494 5.27078C5.69715 2.32495 8.82045 0.623369 12.5786 0.128984C20.3161 -0.889039 27.258 4.2391 29.1156 11.2726C31.333 19.6723 26.1415 27.64 18.1055 29.2431C17.1567 29.4342 16.1797 29.4839 15.2163 29.598ZM1.9878 27.9491C3.62405 27.2558 5.17156 26.6161 6.70347 25.9403C7.18518 25.7278 7.56841 25.7453 8.02769 26.0291C11.0389 27.8984 14.3084 28.54 17.7847 27.8545C24.7256 26.4893 29.3984 19.7991 27.884 12.3979C26.5374 5.81587 20.3356 0.901272 13.3548 1.51365C10.1895 1.79155 7.46114 3.03191 5.24079 5.30003C3.22653 7.36029 1.94831 10.0276 1.60434 12.8883C1.26037 15.749 1.86988 18.6433 3.33834 21.1223C3.89123 22.0555 3.98192 22.8034 3.5519 23.7756C2.96878 25.1037 2.52509 26.4952 1.98683 27.9491H1.9878Z" fill="black"/>
<path d="M19.0894 23.3172C16.9364 23.1934 14.9784 22.3226 13.1676 21.0803C10.4226 19.1983 8.35146 16.7547 7.08673 13.6567C6.71747 12.73 6.48745 11.7538 6.40415 10.7597C6.31042 9.83048 6.55446 8.89862 7.09161 8.13466C7.70789 7.23267 8.487 6.51109 9.49138 6.06546C10.4138 5.65494 11.2203 5.91821 11.7497 6.77339C12.2223 7.53788 12.6911 8.3053 13.1559 9.07565C13.2992 9.31455 13.4221 9.5632 13.5459 9.81673C13.9018 10.5276 13.7819 11.1643 13.2105 11.7046C12.8663 12.0302 12.4986 12.3316 12.1378 12.6348C11.7146 12.9868 11.6649 13.0336 11.9623 13.5037C12.3627 14.1547 12.8099 14.7759 13.3002 15.3622C14.1193 16.3169 15.0554 17.1506 16.1738 17.7522C16.7248 18.0448 16.7258 18.036 17.1265 17.5572C17.4396 17.1857 17.7477 16.8074 18.089 16.4622C18.5853 15.96 19.1792 15.8478 19.8276 16.1443C20.1364 16.2864 20.4372 16.4452 20.7286 16.6201C21.459 17.056 22.1806 17.5055 22.907 17.9482C23.8431 18.5187 24.1308 19.3349 23.6257 20.3109C22.7998 21.9082 21.5955 23.0618 19.7252 23.3114C19.5136 23.3263 19.3013 23.3283 19.0894 23.3172ZM7.78394 10.3657C7.91754 11.0308 7.98969 11.689 8.18276 12.3101C9.03697 15.0521 10.6917 17.252 12.8906 19.056C14.5269 20.3977 16.3328 21.4158 18.4488 21.796C19.2306 21.9448 20.0399 21.8211 20.7415 21.4454C21.4431 21.0698 21.9948 20.4649 22.3044 19.7317C22.3883 19.5367 22.437 19.3719 22.2069 19.2334C21.3104 18.6978 20.4176 18.1563 19.5283 17.6089C19.263 17.4451 19.0758 17.4773 18.8798 17.722C18.5385 18.1491 18.1797 18.5626 17.8169 18.9711C17.4113 19.4285 16.8945 19.5689 16.3289 19.3612C15.8478 19.1961 15.3854 18.981 14.9491 18.7196C13.7858 17.9911 12.798 17.056 11.9165 16.0078C11.3314 15.3183 10.7931 14.6007 10.4694 13.7474C10.1164 12.8172 10.2286 12.3608 10.9706 11.7104C11.309 11.4179 11.6532 11.1253 12.0081 10.8474C12.2519 10.6524 12.287 10.4662 12.1203 10.198C11.5947 9.35258 11.0711 8.50422 10.5767 7.64027C10.3992 7.33018 10.2091 7.29411 9.9292 7.45403C9.14033 7.90356 8.49091 8.5013 8.09111 9.32332C7.93509 9.64414 7.88341 10.0137 7.78394 10.3657Z" fill="#FD6F71"/>
</svg>
