<svg xmlns="http://www.w3.org/2000/svg" width="13" height="13" viewBox="0 0 13 13" fill="none"><path d="M5.64531 1.58203L6.27422 0.980469C6.40182 0.852865 6.55677 0.789062 6.73906 0.789062C6.92135 0.789062 7.0763 0.852865 7.20391 0.980469L12.5086 6.28516C12.6362 6.41276 12.7 6.56771 12.7 6.75C12.7 6.93229 12.6362 7.08724 12.5086 7.21484L7.20391 12.5195C7.0763 12.6471 6.92135 12.7109 6.73906 12.7109C6.55677 12.7109 6.40182 12.6471 6.27422 12.5195L5.64531 11.918C5.51771 11.7904 5.45391 11.6354 5.45391 11.4531C5.47213 11.2708 5.54505 11.1159 5.67266 10.9883L8.95391 7.84375H1.10625C0.923957 7.84375 0.769009 7.77995 0.641405 7.65234C0.513801 7.52474 0.449999 7.36979 0.449999 7.1875V6.3125C0.449999 6.13021 0.513801 5.97526 0.641405 5.84766C0.769009 5.72005 0.923957 5.65625 1.10625 5.65625H8.95391L5.67266 2.51172C5.54505 2.38411 5.47213 2.22917 5.45391 2.04688C5.45391 1.86458 5.51771 1.70964 5.64531 1.58203Z" fill="#000000"></path></svg>