<svg xmlns="http://www.w3.org/2000/svg" width="21" height="22" viewBox="0 0 21 22" fill="none"><path d="M3.28125 3.94727C5.27734 1.95117 7.68359 0.953125 10.5 0.953125C13.3164 0.953125 15.709 1.95117 17.6777 3.94727C19.6738 5.91602 20.6719 8.30859 20.6719 11.125C20.6719 13.9414 19.6738 16.3477 17.6777 18.3438C15.709 20.3125 13.3164 21.2969 10.5 21.2969C7.68359 21.2969 5.27734 20.3125 3.28125 18.3438C1.3125 16.3477 0.328125 13.9414 0.328125 11.125C0.328125 8.30859 1.3125 5.91602 3.28125 3.94727ZM10.5 19.9844C12.9609 19.9844 15.0527 19.123 16.7754 17.4004C18.498 15.6504 19.3594 13.5586 19.3594 11.125C19.3594 8.66406 18.4844 6.57227 16.7344 4.84961C15.0117 3.12695 12.9336 2.26562 10.5 2.26562C8.03906 2.26562 5.94727 3.14062 4.22461 4.89062C2.50195 6.61328 1.64062 8.69141 1.64062 11.125C1.64062 13.5859 2.50195 15.6777 4.22461 17.4004C5.97461 19.123 8.06641 19.9844 10.5 19.9844ZM16.3242 8.70508L8.90039 16.0469C8.68164 16.293 8.44922 16.293 8.20312 16.0469L4.67578 12.4785C4.45703 12.2598 4.45703 12.0273 4.67578 11.7812L5.04492 11.4531C5.26367 11.2344 5.49609 11.2344 5.74219 11.4531L8.57227 14.3242L15.2578 7.63867C15.5039 7.41992 15.7363 7.43359 15.9551 7.67969L16.3242 8.00781C16.543 8.25391 16.543 8.48633 16.3242 8.70508Z" fill="black"></path></svg>