<svg xmlns="http://www.w3.org/2000/svg" width="16" height="13" viewBox="0 0 16 13" fill="none"><path d="M15.6875 4.41992C15.75 4.35742 15.8125 4.34701 15.875 4.38867C15.9583 4.43034 16 4.49284 16 4.57617V10.9512C16 11.3678 15.8542 11.722 15.5625 12.0137C15.2708 12.3053 14.9167 12.4512 14.5 12.4512H1.5C1.08333 12.4512 0.729167 12.3053 0.4375 12.0137C0.145833 11.722 0 11.3678 0 10.9512V4.57617C0 4.49284 0.03125 4.44076 0.09375 4.41992C0.177083 4.37826 0.25 4.37826 0.3125 4.41992C1 4.94076 2.60417 6.11784 5.125 7.95117C5.16667 7.99284 5.30208 8.10742 5.53125 8.29492C5.78125 8.48242 5.97917 8.62826 6.125 8.73242C6.27083 8.81576 6.45833 8.93034 6.6875 9.07617C6.91667 9.20117 7.13542 9.29492 7.34375 9.35742C7.57292 9.41992 7.79167 9.45117 8 9.45117C8.1875 9.45117 8.375 9.43034 8.5625 9.38867C8.75 9.32617 8.92708 9.26367 9.09375 9.20117C9.26042 9.11784 9.4375 9.01367 9.625 8.88867C9.8125 8.76367 9.96875 8.65951 10.0938 8.57617C10.2188 8.47201 10.3646 8.35742 10.5312 8.23242C10.6979 8.10742 10.8125 8.01367 10.875 7.95117C13.3333 6.18034 14.9375 5.00326 15.6875 4.41992ZM8 8.45117C7.83333 8.45117 7.625 8.39909 7.375 8.29492C7.14583 8.16992 6.95833 8.06576 6.8125 7.98242C6.66667 7.87826 6.44792 7.72201 6.15625 7.51367C5.88542 7.28451 5.73958 7.16992 5.71875 7.16992C3.17708 5.31576 1.36458 3.97201 0.28125 3.13867C0.09375 2.99284 0 2.79492 0 2.54492V1.95117C0 1.53451 0.145833 1.18034 0.4375 0.888672C0.729167 0.597005 1.08333 0.451172 1.5 0.451172H14.5C14.9167 0.451172 15.2708 0.597005 15.5625 0.888672C15.8542 1.18034 16 1.53451 16 1.95117V2.54492C16 2.79492 15.9062 2.99284 15.7188 3.13867C14.6979 3.93034 12.8854 5.27409 10.2812 7.16992C10.2604 7.16992 10.1042 7.28451 9.8125 7.51367C9.54167 7.72201 9.33333 7.87826 9.1875 7.98242C9.04167 8.06576 8.84375 8.16992 8.59375 8.29492C8.36458 8.39909 8.16667 8.45117 8 8.45117Z" fill="white"></path></svg>