<svg xmlns="http://www.w3.org/2000/svg" width="12" height="17" viewBox="0 0 12 17" fill="none"><path d="M5.375 16.1387C4.875 15.4095 4.30208 14.5866 3.65625 13.6699C3.03125 12.7533 2.58333 12.1074 2.3125 11.7324C2.04167 11.3574 1.72917 10.8991 1.375 10.3574C1.02083 9.79492 0.78125 9.39909 0.65625 9.16992C0.552083 8.94076 0.427083 8.64909 0.28125 8.29492C0.15625 7.94076 0.0729167 7.63867 0.03125 7.38867C0.0104167 7.11784 0 6.80534 0 6.45117C0 4.78451 0.583333 3.36784 1.75 2.20117C2.91667 1.03451 4.33333 0.451172 6 0.451172C7.66667 0.451172 9.08333 1.03451 10.25 2.20117C11.4167 3.36784 12 4.78451 12 6.45117C12 6.80534 11.9792 7.11784 11.9375 7.38867C11.9167 7.63867 11.8333 7.94076 11.6875 8.29492C11.5625 8.64909 11.4375 8.94076 11.3125 9.16992C11.2083 9.39909 10.9792 9.79492 10.625 10.3574C10.2708 10.8991 9.95833 11.3574 9.6875 11.7324C9.41667 12.1074 8.95833 12.7533 8.3125 13.6699C7.6875 14.5866 7.125 15.4095 6.625 16.1387C6.47917 16.347 6.27083 16.4512 6 16.4512C5.72917 16.4512 5.52083 16.347 5.375 16.1387ZM4.21875 8.23242C4.71875 8.71159 5.3125 8.95117 6 8.95117C6.6875 8.95117 7.27083 8.71159 7.75 8.23242C8.25 7.73242 8.5 7.13867 8.5 6.45117C8.5 5.76367 8.25 5.18034 7.75 4.70117C7.27083 4.20117 6.6875 3.95117 6 3.95117C5.3125 3.95117 4.71875 4.20117 4.21875 4.70117C3.73958 5.18034 3.5 5.76367 3.5 6.45117C3.5 7.13867 3.73958 7.73242 4.21875 8.23242Z" fill="white"></path></svg>