<svg xmlns="http://www.w3.org/2000/svg" width="16" height="17" viewBox="0 0 16 17" fill="none"><path d="M15.5312 11.7637C15.8438 11.8887 16 12.1178 16 12.4512C16 12.5137 15.9896 12.5658 15.9688 12.6074L15.2188 15.8574C15.1354 16.2533 14.8958 16.4512 14.5 16.4512C10.5 16.4512 7.08333 15.0345 4.25 12.2012C1.41667 9.36784 0 5.95117 0 1.95117C0 1.55534 0.197917 1.31576 0.59375 1.23242L3.84375 0.482422C3.88542 0.461589 3.9375 0.451172 4 0.451172C4.33333 0.451172 4.5625 0.607422 4.6875 0.919922L6.1875 4.41992C6.22917 4.50326 6.25 4.59701 6.25 4.70117C6.25 4.93034 6.15625 5.12826 5.96875 5.29492L4.09375 6.82617C5.26042 9.34701 7.10417 11.1908 9.625 12.3574L11.1562 10.4824C11.3229 10.2949 11.5208 10.2012 11.75 10.2012C11.8542 10.2012 11.9479 10.222 12.0312 10.2637L15.5312 11.7637Z" fill="white"></path></svg>